# xmcd
#
# Track frame offsets:
#	150
#	13760
#	32593
#	48640
#	66285
#	83261
#	98918
#	113749
#	129079
#	146780
#	165103
#	179781
#	195737
#	209364
#	222481
#
# Disc length: 3194 seconds
#
# Revision: 1
# Processed by: cddbd v1.5.1PL2 Copyright (c) Steve Scherf et al.
# Submitted via: audiograbber 1.83.01
#
DISCID=d10c780f
DTITLE=Various Artist - CBE2-7
DYEAR=1900
DGENRE=
TTITLE0=Aaron Tippin - There Ain't Nothing Wrong With The Radio
TTITLE1=John Michael Montgomery - I Love The Way You Love Me
TTITLE2=Martina McBride - Independence Day
TTITLE3=Vince Gill - Don't Let Our Love Start Slippin' Away
TTITLE4=Alan Jackson - Mercury Blues
TTITLE5=Reba McEntire - Take It Back
TTITLE6=Billy Dean - Billy The Kid
TTITLE7=Brooks And Dunn - Honky Tonk Truth
TTITLE8=Dixie Chicks - Wide Open Spaces
TTITLE9=Collin Raye - Love Me
TTITLE10=George Strait - Love Without End Amen
TTITLE11=Judds, The - Why Not Me
TTITLE12=Hal Ketchum - Small Town Saturday Night
TTITLE13=Joe Diffie - New way ( To Light Up An Old Flame )
TTITLE14=Shania Twain - Honey I'm Home
EXTD=
EXTT0=
EXTT1=
EXTT2=
EXTT3=
EXTT4=
EXTT5=
EXTT6=
EXTT7=
EXTT8=
EXTT9=
EXTT10=
EXTT11=
EXTT12=
EXTT13=
EXTT14=
PLAYORDER=
